<?xml version="1.0" encoding="UTF-8"?>
<svg id="Layer_1" data-name="Layer 1" xmlns="http://www.w3.org/2000/svg" xmlns:xlink="http://www.w3.org/1999/xlink" viewBox="0 0 1080 1920">
  <defs>
    <style>
      .cls-1, .cls-2 {
        fill: none;
      }

      .cls-2 {
        stroke: #fbcf1e;
        stroke-miterlimit: 10;
        stroke-width: 6.41px;
      }

      .cls-3 {
        fill: #fbcf1e;
      }

      .cls-4 {
        clip-path: url(#clippath);
      }
    </style>
    <clipPath id="clippath">
      <rect class="cls-1" width="1080" height="1920"/>
    </clipPath>
  </defs>
  <g class="cls-4">
    <g>
      <g>
        <polygon class="cls-2" points="471.87 1824.1 807.53 1911.08 893.75 2245.6 558.09 2158.62 471.87 1824.1"/>
        <polygon class="cls-3" points="50.29 1714.85 385.94 1801.83 385.95 1801.83 472.16 2136.35 136.5 2049.36 50.29 1714.85"/>
        <polygon class="cls-2" points="-1214.46 1387.1 -878.81 1474.09 -878.8 1474.09 -792.88 1496.35 -457.22 1583.34 -371.3 1605.61 -35.63 1692.59 50.58 2027.1 -285.09 1940.11 -371 1917.86 -706.66 1830.87 -792.58 1808.6 -1128.25 1721.62 -1214.46 1387.1"/>
        <polygon class="cls-2" points="-58.96 1290.97 276.7 1377.95 362.62 1400.22 698.29 1487.2 784.5 1821.72 448.84 1734.74 362.91 1712.47 27.25 1625.49 -58.96 1290.97"/>
        <polygon class="cls-2" points="254.56 980.93 590.22 1067.92 676.44 1402.42 340.77 1315.44 254.56 980.93"/>
        <polygon class="cls-3" points="-1431.77 543.94 -1096.11 630.92 -1010.19 653.19 -674.52 740.17 -588.61 762.43 -252.95 849.41 -167.03 871.68 168.64 958.66 254.85 1293.18 -80.81 1206.2 -166.73 1183.93 -502.39 1096.95 -588.31 1074.68 -923.98 987.7 -1009.9 965.44 -1345.56 878.46 -1431.77 543.94"/>
        <polygon class="cls-2" points="-696.68 343.14 -361.01 430.13 -275.09 452.38 -275.09 452.4 60.57 539.38 146.79 873.89 -188.88 786.9 -274.79 764.65 -610.45 677.66 -696.68 343.14"/>
        <polygon class="cls-2" points="374.09 229.33 38.42 142.35 124.64 476.87 232.71 896.15 568.37 983.14 482.15 648.62 374.09 229.33"/>
        <polygon class="cls-2" points="-69.64 -276.95 266.02 -189.97 352.24 144.55 16.58 57.57 -69.64 -276.95"/>
        <polygon class="cls-2" points="-1226.33 -185.39 -890.66 -98.41 -804.74 -76.15 -469.08 10.83 -469.08 10.84 -383.15 33.1 -47.49 120.08 38.72 454.6 -296.94 367.62 -382.86 345.35 -718.53 258.37 -804.44 236.11 -1140.1 149.13 -1226.33 -185.39"/>
      </g>
      <g>
        <polygon class="cls-3" points="794.29 1506.23 1129.95 1593.21 1215.88 1615.48 1551.54 1702.46 1637.75 2036.98 1302.09 1950 1216.16 1927.73 880.5 1840.75 794.29 1506.23"/>
        <polygon class="cls-2" points="686.23 1086.94 1021.89 1173.92 1107.81 1196.19 1443.48 1283.17 1529.39 1305.43 1865.05 1392.41 1950.97 1414.68 2286.64 1501.66 2372.85 1836.18 2037.19 1749.2 1951.27 1726.93 1615.61 1639.95 1529.69 1617.68 1194.02 1530.7 1108.1 1508.44 772.44 1421.46 686.23 1086.94"/>
        <polygon class="cls-2" points="578.16 667.65 913.83 754.64 999.75 776.89 1335.4 863.88 1421.62 1198.39 1085.96 1111.41 1000.04 1089.14 664.37 1002.16 578.16 667.65"/>
        <polygon class="cls-3" points="470.1 248.36 805.76 335.34 891.97 669.86 556.31 582.87 470.1 248.36"/>
        <polygon class="cls-2" points="891.67 357.61 1227.34 444.59 1313.26 466.85 1648.92 553.83 1648.92 553.84 1734.85 576.1 2070.51 663.08 2156.72 997.6 1821.06 910.62 1735.14 888.35 1399.47 801.37 1313.56 779.11 977.9 692.13 891.67 357.61"/>
        <polygon class="cls-2" points="362.03 -170.93 697.7 -83.95 783.61 -61.69 1119.27 25.29 1119.27 25.3 1205.5 359.81 869.83 272.83 783.91 250.57 448.25 163.59 362.03 -170.93"/>
      </g>
    </g>
  </g>
</svg>