<?xml version="1.0" encoding="utf-8"?>
<!-- Generator: Adobe Illustrator 26.3.1, SVG Export Plug-In . SVG Version: 6.00 Build 0)  -->
<svg version="1.1" id="Layer_1" xmlns="http://www.w3.org/2000/svg" xmlns:xlink="http://www.w3.org/1999/xlink" x="0px" y="0px"
	 viewBox="0 0 1920 1920" style="enable-background:new 0 0 1920 1920;" xml:space="preserve">
<style type="text/css">
	.st0{fill:#FBCF1E;}
</style>
<g>
	<g>
		<path class="st0" d="M335.84,783.51l41.01-158.26l157.73-40.65l-41.01,158.26L335.84,783.51z M379.28,627.69l-39.31,151.7
			l151.17-38.96l39.31-151.7L379.28,627.69z"/>
		<polygon class="st0" points="582.96,392.02 542.8,546.99 542.8,547 388.35,586.8 428.51,431.82 		"/>
		<path class="st0" d="M436.73,394.21l141.89-547.55l0.85-0.22l156.88-40.43L594.45,353.56L436.73,394.21z M581.05-150.91
			l-90.38,348.78l-10.28,39.67l-39.53,152.55l151.17-38.96L682.41,2.35l10.28-39.67l39.53-152.54L581.05-150.91z"/>
		<path class="st0" d="M531.55,733.07L623,380.16l0.85-0.22l156.88-40.43l-91.45,352.91l-0.85,0.22L531.55,733.07z M625.43,382.6
			l-89.75,346.35l151.17-38.96l39.94-154.13l10.28-39.67l39.53-152.55L625.43,382.6z"/>
		<path class="st0" d="M632.43,343.77l41.01-158.26l0.85-0.22l156.88-40.43l-41.01,158.25L632.43,343.77z M675.87,187.95
			l-39.31,151.7l151.17-38.96l39.31-151.7L675.87,187.95z"/>
		<path class="st0" d="M682.87,149.12l91.45-352.91l157.73-40.65L840.6,108.47l-0.85,0.22L682.87,149.12z M776.75-201.35
			L736.81-47.22L726.53-7.54L687,145l151.17-38.96l39.94-154.13l10.28-39.67l39.53-152.55L776.75-201.35z"/>
		<path class="st0" d="M725.14,683.18l41.01-158.26l157.72-40.65l-41.01,158.26L725.14,683.18z M768.58,527.35l-39.31,151.7
			l151.17-38.96l39.31-151.7L768.58,527.35z"/>
		<polygon class="st0" points="1123.58,-292.26 1083.42,-137.29 1073.13,-97.61 1032.97,57.36 1022.7,97.03 982.54,252.01 
			972.26,291.68 932.1,446.66 777.64,486.46 817.81,331.49 828.09,291.82 868.25,136.84 878.53,97.17 918.69,-57.81 928.97,-97.48 
			969.13,-252.46 		"/>
		<path class="st0" d="M969.17,438.63l91.45-352.9l157.73-40.65l-91.45,352.91l-0.85,0.22L969.17,438.63z M1063.05,88.16
			l-39.94,154.13l-10.28,39.67L973.3,434.51l151.17-38.96l40.23-155.24h0l9.99-38.56l39.53-152.55L1063.05,88.16z"/>
		<path class="st0" d="M1070.05,49.34l91.45-352.91l0.85-0.22l156.88-40.43l-91.45,352.9l-0.85,0.22L1070.05,49.34z M1163.93-301.14
			L1123.99-147l-10.28,39.67l-39.53,152.55l151.17-38.96l39.94-154.13l10.28-39.67l39.53-152.55L1163.93-301.14z"/>
		<path class="st0" d="M918.73,633.28l41.01-158.26l351.32-90.55l-41.01,158.26l-0.85,0.22l-193.59,49.89L918.73,633.28z
			 M962.17,477.46l-39.31,151.7l152.02-39.18l192.74-49.68l39.31-151.7l-152.02,39.18L962.17,477.46z"/>
		<path class="st0" d="M1314.08-195.21l41.01-158.26l157.73-40.65l-41.01,158.26L1314.08-195.21z M1357.52-351.03l-39.31,151.7
			l151.17-38.96l39.31-151.7L1357.52-351.03z"/>
		<path class="st0" d="M1305.92,533.49l41.01-158.26l157.73-40.65l-41.01,158.26L1305.92,533.49z M1349.35,377.67l-39.31,151.7
			l151.17-38.96l39.31-151.7L1349.35,377.67z"/>
		<path class="st0" d="M1356.35,338.84l41.08-158.52h0.96l156.7-40.38l-41.01,158.26l-0.84,0.22L1356.35,338.84z M1399.79,183.02
			l-39.31,151.7l151.17-38.96l39.31-151.7L1399.79,183.02z"/>
		<path class="st0" d="M1162.76,388.74l141.89-547.55l157.73-40.65l-141.89,547.56l-0.84,0.22L1162.76,388.74z M1307.08-156.38
			L1267.14-2.25l-10.28,39.67L1216.7,192.4l-10.28,39.67l-39.53,152.55l151.17-38.96L1358,191.52l10.57-40.78l39.87-153.87
			l10.28-39.67l39.53-152.55L1307.08-156.38z"/>
		<path class="st0" d="M1406.79,144.19l41.01-158.26l157.73-40.65l-41.01,158.26L1406.79,144.19z M1450.23-11.63l-39.31,151.7
			l151.17-38.96l39.31-151.7L1450.23-11.63z"/>
		<path class="st0" d="M1457.24-50.45l91.45-352.91l157.73-40.65L1614.9-90.84h-0.96L1457.24-50.45z M1551.11-400.93l-39.94,154.13
			l-10.28,39.67l-39.53,152.55l151.17-38.97l39.94-154.13l10.28-39.67l39.53-152.55L1551.11-400.93z"/>
		<path class="st0" d="M1499.5,483.6l91.45-352.91l157.72-40.65l-91.45,352.9L1499.5,483.6z M1593.38,133.13l-89.75,346.35
			l151.17-38.96l50.51-194.91h0.01l39.24-151.44L1593.38,133.13z"/>
		<path class="st0" d="M1600.39,94.3l41.07-158.52h0.96l156.7-40.38l-41.01,158.26L1600.39,94.3z M1643.82-61.52l-39.31,151.7
			l151.17-38.96l39.31-151.7L1643.82-61.52z"/>
		<path class="st0" d="M1650.82-100.35l91.45-352.91L1900-493.9L1808.55-141L1650.82-100.35z M1744.71-450.82l-39.94,154.13
			l-10.28,39.67l-39.53,152.55l151.17-38.96l50.22-193.81l39.52-152.54L1744.71-450.82z"/>
	</g>
	<g>
		<path class="st0" d="M85.14,1761.41l41.01-158.26l0.85-0.22l156.88-40.44l-41.01,158.26l-0.85,0.22L85.14,1761.41z
			 M128.57,1605.59l-39.31,151.7l151.17-38.96l39.31-151.7L128.57,1605.59z"/>
		<path class="st0" d="M135.58,1566.76l41.01-158.26l0.85-0.22l156.88-40.43l-40.74,157.22v0.96l-1.11,0.29L135.58,1566.76z
			 M179.02,1410.94l-39.31,151.7l151.17-38.96l39.31-151.7L179.02,1410.94z"/>
		<path class="st0" d="M186.02,1372.11l141.89-547.55l0.85-0.22l156.88-40.43l-141.89,547.55l-0.85,0.22L186.02,1372.11z
			 M330.34,826.99l-90.38,348.78l-10.28,39.67l-39.53,152.55l151.17-38.96l90.38-348.78l10.28-39.67l39.53-152.54L330.34,826.99z"/>
		<path class="st0" d="M280.84,1710.97l91.45-352.91l0.85-0.22l156.88-40.43l-91.45,352.91l-0.85,0.22L280.84,1710.97z
			 M374.72,1360.49l-39.94,154.13l-10.28,39.67l-39.53,152.55l151.17-38.96l39.94-154.13l10.28-39.67l39.53-152.55L374.72,1360.49z"
			/>
		<path class="st0" d="M381.73,1321.67l41.01-158.26l0.85-0.22l156.88-40.43l-41.01,158.25l-0.85,0.22L381.73,1321.67z
			 M425.17,1165.85l-39.31,151.7l151.17-38.96l39.31-151.7L425.17,1165.85z"/>
		<polygon class="st0" points="679.28,735.53 639.12,890.51 628.84,930.18 588.68,1085.16 434.23,1124.96 474.39,969.98 
			484.67,930.31 524.83,775.33 		"/>
		<path class="st0" d="M474.44,1661.07l41.01-158.26l0.85-0.22l156.88-40.43l-41.01,158.26l-0.85,0.22L474.44,1661.07z
			 M517.87,1505.25l-39.31,151.7l151.17-38.96l39.31-151.7L517.87,1505.25z"/>
		<path class="st0" d="M524.87,1466.42l192.33-742.2l157.73-40.65l-192.33,742.2l-0.85,0.22L524.87,1466.42z M719.63,726.66
			l-39.94,154.13l-10.28,39.67l-40.16,154.98l-10.28,39.67l-40.16,154.98l-10.28,39.67L529,1462.3l151.17-38.96L870.8,687.7
			L719.63,726.66z"/>
		<path class="st0" d="M668.03,1611.18l41.01-158.26l0.85-0.22l156.88-40.43l-41.01,158.25l-0.85,0.22L668.03,1611.18z
			 M711.46,1455.36l-39.31,151.7l151.17-38.96l39.31-151.7L711.46,1455.36z"/>
		<path class="st0" d="M718.47,1416.53l91.45-352.9l0.85-0.22l156.88-40.44l-91.45,352.91l-0.85,0.22L718.47,1416.53z
			 M812.34,1066.06l-39.94,154.13l-10.28,39.67l-39.53,152.55l151.17-38.96l40.23-155.24h0l9.99-38.56l39.53-152.55L812.34,1066.06z
			"/>
		<path class="st0" d="M819.35,1027.23l91.45-352.91l157.72-40.65l-91.45,352.9l-0.85,0.22L819.35,1027.23z M913.23,676.76
			l-39.94,154.13L863,870.57l-39.53,152.55l151.17-38.96l39.94-154.13l10.28-39.67l39.53-152.55L913.23,676.76z"/>
		<path class="st0" d="M861.61,1561.29l41.01-158.26l0.85-0.22l156.88-40.44l-41.01,158.26l-0.85,0.22L861.61,1561.29z
			 M905.05,1405.46l-39.31,151.7l151.17-38.96l39.31-151.7L905.05,1405.46z"/>
		<polygon class="st0" points="1260.05,585.85 1219.89,740.82 1065.44,780.63 1105.6,625.65 		"/>
		<path class="st0" d="M1055.21,1511.39l41.01-158.26l0.84-0.22l156.88-40.44l-41.01,158.26l-0.84,0.22L1055.21,1511.39z
			 M1098.65,1355.57l-39.31,151.7l151.17-38.96l39.31-151.7L1098.65,1355.57z"/>
		<path class="st0" d="M1105.64,1316.74l41.08-158.52h0.96l156.7-40.38l-41.01,158.26l-0.85,0.22L1105.64,1316.74z M1149.08,1160.92
			l-39.31,151.7l151.17-38.96l39.31-151.7L1149.08,1160.92z"/>
		<path class="st0" d="M912.06,1366.64l141.89-547.55l157.73-40.65l-141.89,547.56l-0.85,0.22L912.06,1366.64z M1056.37,821.52
			l-39.94,154.13l-10.28,39.67l-40.16,154.98l-10.28,39.67l-39.53,152.55l151.17-38.96l39.94-154.13l10.57-40.78l39.87-153.87
			l10.28-39.67l39.53-152.55L1056.37,821.52z"/>
		<path class="st0" d="M1156.09,1122.09l41.01-158.26l0.85-0.22l156.88-40.43l-41.01,158.26l-0.85,0.22L1156.09,1122.09z
			 M1199.53,966.27l-39.31,151.7l151.17-38.96l39.31-151.7L1199.53,966.27z"/>
		<path class="st0" d="M1206.53,927.45l91.45-352.91l157.73-40.65l-91.52,353.17h-0.96L1206.53,927.45z M1300.4,576.97
			l-39.94,154.13l-10.28,39.67l-39.53,152.55l151.17-38.97l39.94-154.13l10.28-39.67l39.53-152.55L1300.4,576.97z"/>
		<path class="st0" d="M1248.8,1461.5l91.45-352.91l0.84-0.22l156.88-40.43l-91.45,352.9l-0.84,0.22L1248.8,1461.5z
			 M1342.68,1111.02l-89.75,346.35l151.17-38.96l39.94-154.13l49.81-192.21L1342.68,1111.02z"/>
		<path class="st0" d="M1349.68,1072.2l41.07-158.52h0.96l156.7-40.38l-41.01,158.26l-0.84,0.22L1349.68,1072.2z M1393.11,916.38
			l-39.31,151.7l151.17-38.96l39.31-151.7L1393.11,916.38z"/>
		<path class="st0" d="M1400.12,877.55l91.45-352.91l0.84-0.22L1649.29,484l-91.45,352.9L1400.12,877.55z M1494,527.08
			l-39.94,154.13l-10.28,39.67l-39.53,152.55l151.17-38.96l50.22-193.81l39.52-152.54L1494,527.08z"/>
	</g>
</g>
<g>
	<g>
		<path class="st0" d="M-156.16,2728.51l41.01-158.26l157.73-40.65L1.57,2687.86L-156.16,2728.51z M-112.72,2572.69l-39.31,151.7
			l151.17-38.96l39.31-151.7L-112.72,2572.69z"/>
		<polygon class="st0" points="90.96,2337.02 50.8,2491.99 50.8,2492 -103.65,2531.8 -63.49,2376.82 		"/>
		<path class="st0" d="M-55.27,2339.21l141.89-547.55l0.85-0.22l156.88-40.43l-141.89,547.55L-55.27,2339.21z M89.05,1794.09
			l-90.38,348.78l-10.28,39.67l-39.53,152.55l151.17-38.96l90.38-348.78l10.28-39.67l39.53-152.54L89.05,1794.09z"/>
		<path class="st0" d="M39.55,2678.07L131,2325.16l0.85-0.22l156.88-40.43l-91.45,352.91l-0.85,0.22L39.55,2678.07z M133.43,2327.6
			l-89.75,346.35l151.17-38.96l39.94-154.13l10.28-39.67l39.53-152.55L133.43,2327.6z"/>
		<path class="st0" d="M140.43,2288.77l41.01-158.26l0.85-0.22l156.88-40.43l-41.01,158.25L140.43,2288.77z M183.87,2132.95
			l-39.31,151.7l151.17-38.96l39.31-151.7L183.87,2132.95z"/>
		<path class="st0" d="M190.87,2094.12l91.45-352.91l157.73-40.65l-91.45,352.91l-0.85,0.22L190.87,2094.12z M284.75,1743.65
			l-39.94,154.13l-10.28,39.67L195,2090l151.17-38.96l39.94-154.13l10.28-39.67l39.53-152.55L284.75,1743.65z"/>
		<path class="st0" d="M233.14,2628.18l41.01-158.26l157.72-40.65l-41.01,158.26L233.14,2628.18z M276.58,2472.35l-39.31,151.7
			l151.17-38.96l39.31-151.7L276.58,2472.35z"/>
		<polygon class="st0" points="631.58,1652.74 591.42,1807.71 581.13,1847.39 540.97,2002.36 530.7,2042.03 490.54,2197.01 
			480.26,2236.68 440.1,2391.66 285.64,2431.46 325.81,2276.49 336.09,2236.82 376.25,2081.84 386.53,2042.17 426.69,1887.19 
			436.97,1847.52 477.13,1692.54 		"/>
		<path class="st0" d="M477.17,2383.63l91.45-352.9l157.73-40.65l-91.45,352.91l-0.85,0.22L477.17,2383.63z M571.05,2033.16
			l-39.94,154.13l-10.28,39.67l-39.53,152.55l151.17-38.96l40.23-155.24h0l9.99-38.56l39.53-152.55L571.05,2033.16z"/>
		<path class="st0" d="M578.05,1994.34l91.45-352.91l0.85-0.22l156.88-40.43l-91.45,352.9l-0.85,0.22L578.05,1994.34z
			 M671.93,1643.86L631.99,1798l-10.28,39.67l-39.53,152.55l151.17-38.96l39.94-154.13l10.28-39.67l39.53-152.55L671.93,1643.86z"/>
		<path class="st0" d="M426.73,2578.28l41.01-158.26l351.32-90.55l-41.01,158.26l-0.85,0.22l-193.59,49.89L426.73,2578.28z
			 M470.17,2422.46l-39.31,151.7l152.02-39.18l192.74-49.68l39.31-151.7l-152.02,39.18L470.17,2422.46z"/>
		<path class="st0" d="M822.08,1749.79l41.01-158.26l157.73-40.65l-41.01,158.26L822.08,1749.79z M865.52,1593.97l-39.31,151.7
			l151.17-38.96l39.31-151.7L865.52,1593.97z"/>
		<path class="st0" d="M813.92,2478.49l41.01-158.26l157.73-40.65l-41.01,158.26L813.92,2478.49z M857.35,2322.67l-39.31,151.7
			l151.17-38.96l39.31-151.7L857.35,2322.67z"/>
		<path class="st0" d="M864.35,2283.84l41.08-158.52h0.96l156.7-40.39l-41.01,158.26l-0.85,0.22L864.35,2283.84z M907.79,2128.02
			l-39.31,151.7l151.17-38.96l39.31-151.7L907.79,2128.02z"/>
		<path class="st0" d="M670.76,2333.74l141.89-547.55l157.73-40.65l-141.89,547.56l-0.85,0.22L670.76,2333.74z M815.08,1788.62
			l-39.94,154.13l-10.28,39.67L724.7,2137.4l-10.28,39.67l-39.53,152.55l151.17-38.96L866,2136.52l10.57-40.78l39.87-153.87
			l10.28-39.67l39.53-152.55L815.08,1788.62z"/>
		<path class="st0" d="M914.79,2089.19l41.01-158.26l157.73-40.65l-41.01,158.26L914.79,2089.19z M958.23,1933.37l-39.31,151.7
			l151.17-38.96l39.31-151.7L958.23,1933.37z"/>
		<path class="st0" d="M965.24,1894.55l91.45-352.91l157.73-40.65l-91.52,353.17h-0.96L965.24,1894.55z M1059.11,1544.07
			l-39.94,154.13l-10.28,39.67l-39.53,152.55l151.17-38.97l39.94-154.13l10.28-39.67l39.53-152.55L1059.11,1544.07z"/>
		<path class="st0" d="M1007.5,2428.6l91.45-352.91l157.72-40.65l-91.45,352.9L1007.5,2428.6z M1101.38,2078.13l-89.75,346.35
			l151.17-38.96l50.51-194.91h0.01l39.24-151.44L1101.38,2078.13z"/>
		<path class="st0" d="M1108.39,2039.3l41.07-158.52h0.96l156.7-40.38l-41.01,158.26L1108.39,2039.3z M1151.82,1883.48l-39.31,151.7
			l151.17-38.96l39.31-151.7L1151.82,1883.48z"/>
		<path class="st0" d="M1158.82,1844.65l91.45-352.91L1408,1451.1l-91.45,352.9L1158.82,1844.65z M1252.71,1494.18l-39.94,154.13
			l-10.28,39.67l-39.53,152.55l151.17-38.96l50.22-193.81l39.52-152.54L1252.71,1494.18z"/>
	</g>
	<g>
		<path class="st0" d="M-406.86,3706.41l41.01-158.26l0.85-0.22l156.88-40.44l-41.01,158.26l-0.85,0.22L-406.86,3706.41z
			 M-363.43,3550.59l-39.31,151.7l151.17-38.96l39.31-151.7L-363.43,3550.59z"/>
		<path class="st0" d="M-356.42,3511.76l41.01-158.26l0.85-0.22l156.88-40.43l-40.74,157.22v0.96l-1.11,0.29L-356.42,3511.76z
			 M-312.98,3355.94l-39.31,151.7l151.17-38.96l39.31-151.7L-312.98,3355.94z"/>
		<path class="st0" d="M-305.98,3317.11l141.89-547.55l0.85-0.22l156.88-40.43l-141.89,547.55l-0.85,0.22L-305.98,3317.11z
			 M-161.66,2771.99l-90.38,348.78l-10.28,39.67l-39.53,152.55l151.17-38.96l90.38-348.78l10.28-39.67l39.53-152.54L-161.66,2771.99
			z"/>
		<path class="st0" d="M-211.16,3655.97l91.45-352.91l0.85-0.22l156.88-40.43l-91.45,352.91l-0.85,0.22L-211.16,3655.97z
			 M-117.28,3305.49l-39.94,154.13l-10.28,39.67l-39.53,152.55l151.17-38.96l39.94-154.13l10.28-39.67l39.53-152.55L-117.28,3305.49
			z"/>
		<path class="st0" d="M-110.27,3266.67l41.01-158.26l0.85-0.22l156.88-40.43l-41.01,158.25l-0.85,0.22L-110.27,3266.67z
			 M-66.83,3110.85l-39.31,151.7l151.17-38.96l39.31-151.7L-66.83,3110.85z"/>
		<polygon class="st0" points="187.28,2680.53 147.12,2835.51 136.84,2875.18 96.68,3030.16 -57.77,3069.96 -17.61,2914.98 
			-7.33,2875.31 32.83,2720.33 		"/>
		<path class="st0" d="M-17.56,3606.07l41.01-158.26l0.85-0.22l156.88-40.43l-41.01,158.26l-0.85,0.22L-17.56,3606.07z
			 M25.87,3450.25l-39.31,151.7l151.17-38.96l39.31-151.7L25.87,3450.25z"/>
		<path class="st0" d="M32.87,3411.42l192.33-742.2l157.73-40.65l-192.33,742.2l-0.85,0.22L32.87,3411.42z M227.63,2671.66
			l-39.94,154.13l-10.28,39.67l-40.16,154.98l-10.28,39.67l-40.16,154.98l-10.28,39.67L37,3407.3l151.17-38.96L378.8,2632.7
			L227.63,2671.66z"/>
		<path class="st0" d="M176.03,3556.18l41.01-158.26l0.85-0.22l156.88-40.43l-41.01,158.25l-0.85,0.22L176.03,3556.18z
			 M219.46,3400.36l-39.31,151.7l151.17-38.96l39.31-151.7L219.46,3400.36z"/>
		<path class="st0" d="M226.47,3361.53l91.45-352.9l0.85-0.22l156.88-40.44l-91.45,352.91l-0.85,0.22L226.47,3361.53z
			 M320.34,3011.06l-39.94,154.13l-10.28,39.67l-39.53,152.55l151.17-38.96l40.23-155.24h0l9.99-38.56l39.53-152.55L320.34,3011.06z
			"/>
		<path class="st0" d="M327.35,2972.23l91.45-352.91l157.72-40.65l-91.45,352.9l-0.85,0.22L327.35,2972.23z M421.23,2621.76
			l-39.94,154.13L371,2815.57l-39.53,152.55l151.17-38.96l39.94-154.13l10.28-39.67l39.53-152.55L421.23,2621.76z"/>
		<path class="st0" d="M369.61,3506.29l41.01-158.26l0.85-0.22l156.88-40.44l-41.01,158.26l-0.85,0.22L369.61,3506.29z
			 M413.05,3350.46l-39.31,151.7l151.17-38.96l39.31-151.7L413.05,3350.46z"/>
		<polygon class="st0" points="768.05,2530.85 727.89,2685.82 573.44,2725.63 613.6,2570.65 		"/>
		<path class="st0" d="M563.21,3456.39l41.01-158.26l0.85-0.22l156.88-40.44l-41.01,158.26l-0.85,0.22L563.21,3456.39z
			 M606.65,3300.57l-39.31,151.7l151.17-38.96l39.31-151.7L606.65,3300.57z"/>
		<path class="st0" d="M613.64,3261.74l41.08-158.52h0.96l156.7-40.38l-41.01,158.26l-0.85,0.22L613.64,3261.74z M657.08,3105.92
			l-39.31,151.7l151.17-38.96l39.31-151.7L657.08,3105.92z"/>
		<path class="st0" d="M420.06,3311.64l141.89-547.55l157.73-40.65l-141.89,547.56l-0.85,0.22L420.06,3311.64z M564.37,2766.52
			l-39.94,154.13l-10.28,39.67l-40.16,154.98l-10.28,39.67l-39.53,152.55l151.17-38.96l39.94-154.13l10.57-40.78l39.87-153.87
			l10.28-39.67l39.53-152.55L564.37,2766.52z"/>
		<path class="st0" d="M664.09,3067.09l41.01-158.26l0.85-0.22l156.88-40.43l-41.01,158.26l-0.85,0.22L664.09,3067.09z
			 M707.53,2911.27l-39.31,151.7l151.17-38.96l39.31-151.7L707.53,2911.27z"/>
		<path class="st0" d="M714.53,2872.45l91.45-352.91l157.73-40.65l-91.52,353.17h-0.96L714.53,2872.45z M808.4,2521.97
			l-39.94,154.13l-10.28,39.67l-39.53,152.55l151.17-38.97l39.94-154.13l10.28-39.67l39.53-152.55L808.4,2521.97z"/>
		<path class="st0" d="M756.8,3406.5l91.45-352.91l0.85-0.22l156.88-40.43l-91.45,352.9l-0.85,0.22L756.8,3406.5z M850.68,3056.02
			l-89.75,346.35l151.17-38.96l39.94-154.13l49.81-192.21L850.68,3056.02z"/>
		<path class="st0" d="M857.68,3017.2l41.07-158.52h0.96l156.7-40.39l-41.01,158.26l-0.85,0.22L857.68,3017.2z M901.11,2861.38
			l-39.31,151.7l151.17-38.96l39.31-151.7L901.11,2861.38z"/>
		<path class="st0" d="M908.12,2822.55l91.45-352.91l0.85-0.22l156.88-40.43l-91.45,352.9L908.12,2822.55z M1002,2472.08
			l-39.94,154.13l-10.28,39.67l-39.53,152.55l151.17-38.96l50.22-193.81l39.52-152.54L1002,2472.08z"/>
	</g>
</g>
</svg>
