<?xml version="1.0" encoding="utf-8"?>
<!-- Generator: Adobe Illustrator 26.3.1, SVG Export Plug-In . SVG Version: 6.00 Build 0)  -->
<svg version="1.1" id="Layer_1" xmlns="http://www.w3.org/2000/svg" xmlns:xlink="http://www.w3.org/1999/xlink" x="0px" y="0px"
	 viewBox="0 0 1920 1920" style="enable-background:new 0 0 1920 1920;" xml:space="preserve">
<style type="text/css">
	.st0{fill:#FBCF1E;}
</style>
<g>
	<g>
		<path class="st0" d="M1976.04,166.29l216.15,1.02l103.46,188.88l-216.15-1.02L1976.04,166.29z M2189.85,171.21l-207.19-0.98
			l99.15,181.03l207.19,0.98L2189.85,171.21z"/>
		<polygon class="st0" points="2558.17,355.47 2346.51,354.47 2346.5,354.47 2245.2,169.52 2456.87,170.51 		"/>
		<path class="st0" d="M2507.74,168.8l747.84,3.52l0.55,1.01l102.9,187.87l-747.84-3.53L2507.74,168.8z M3253.26,176.22
			l-476.37-2.25l-54.18-0.25l-208.35-0.98l99.15,181.02l476.37,2.25l54.18,0.26l208.34,0.98L3253.26,176.22z"/>
		<path class="st0" d="M2104.4,400.64l482,2.27l0.55,1.01l102.89,187.87l-482-2.27l-0.55-1.01L2104.4,400.64z M2584.07,406.82
			l-473.05-2.23l99.15,181.03l210.52,0.99l54.18,0.26l208.35,0.98L2584.07,406.82z"/>
		<path class="st0" d="M2636.1,403.15l216.15,1.02l0.55,1.01l102.89,187.86l-216.14-1.02L2636.1,403.15z M2849.92,408.08
			l-207.19-0.98l99.15,181.02l207.19,0.98L2849.92,408.08z"/>
		<path class="st0" d="M2901.95,404.4l482,2.27l103.45,188.88l-482-2.27l-0.55-1.01L2901.95,404.4z M3381.62,410.58l-210.52-0.99
			l-54.18-0.26l-208.35-0.98l99.15,181.03l210.52,0.99l54.18,0.26l208.35,0.98L3381.62,410.58z"/>
		<path class="st0" d="M2231.37,632.47l216.15,1.02l103.45,188.87l-216.15-1.02L2231.37,632.47z M2445.19,637.39L2238,636.42
			l99.15,181.02l207.19,0.98L2445.19,637.39z"/>
		<polygon class="st0" points="3611.06,825.4 3399.39,824.41 3345.2,824.15 3133.53,823.15 3079.36,822.9 2867.69,821.9 
			2813.5,821.64 2601.84,820.65 2500.54,635.69 2712.21,636.69 2766.38,636.95 2978.05,637.95 3032.24,638.2 3243.91,639.2 
			3298.09,639.45 3509.76,640.45 		"/>
		<path class="st0" d="M2624.2,865.55l481.99,2.27l103.46,188.88l-482-2.27l-0.55-1.01L2624.2,865.55z M3103.86,871.72l-210.52-0.99
			l-54.18-0.25l-208.35-0.98l99.15,181.02l212.03,1l0,0.01l52.67,0.24l208.35,0.98L3103.86,871.72z"/>
		<path class="st0" d="M3155.89,868.05l482,2.27l0.55,1.01l102.89,187.86l-481.99-2.27l-0.55-1.01L3155.89,868.05z M3635.57,874.23
			l-210.52-0.99l-54.18-0.26L3162.52,872l99.16,181.03l210.51,0.99l54.18,0.25l208.35,0.98L3635.57,874.23z"/>
		<path class="st0" d="M2358.34,864.29l216.15,1.02l230.43,420.7l-216.15-1.02l-0.55-1.01l-126.97-231.82L2358.34,864.29z
			 M2572.16,869.22l-207.19-0.98l99.71,182.04l126.42,230.81l207.19,0.98l-99.71-182.04L2572.16,869.22z"/>
		<path class="st0" d="M3548.72,1101.13l216.15,1.02l103.45,188.88l-216.15-1.02L3548.72,1101.13z M3762.54,1106.05l-207.19-0.98
			l99.15,181.03l207.19,0.98L3762.54,1106.05z"/>
		<path class="st0" d="M2612.29,1327.94l216.15,1.02l103.46,188.88l-216.15-1.02L2612.29,1327.94z M2826.11,1332.86l-207.19-0.98
			l99.15,181.03l207.19,0.98L2826.11,1332.86z"/>
		<path class="st0" d="M2878.14,1329.19l216.51,1.02l0.31,1.23l102.77,187.64l-216.15-1.02l-0.55-1.01L2878.14,1329.19z
			 M3091.96,1334.11l-207.19-0.98l99.15,181.03l207.19,0.98L3091.96,1334.11z"/>
		<path class="st0" d="M2751.17,1097.37l747.84,3.52l103.46,188.88l-747.85-3.52l-0.55-1.01L2751.17,1097.37z M3496.69,1104.8
			l-210.52-0.99l-54.18-0.25l-211.67-1l-54.18-0.26l-208.35-0.98l99.15,181.03l210.52,0.99l55.7,0.26l210.15,0.99l54.18,0.25
			l208.35,0.98L3496.69,1104.8z"/>
		<path class="st0" d="M3143.99,1330.44l216.15,1.02l103.45,188.88l-216.15-1.02L3143.99,1330.44z M3357.81,1335.37l-207.19-0.98
			l99.15,181.03l207.19,0.98L3357.81,1335.37z"/>
		<path class="st0" d="M3409.84,1331.7l482,2.27l103.45,188.88l-482.35-2.27l-0.31-1.23L3409.84,1331.7z M3889.51,1337.87
			l-210.52-0.99l-54.18-0.25l-208.35-0.98l99.16,181.03l210.51,0.99l54.18,0.25l208.35,0.98L3889.51,1337.87z"/>
		<path class="st0" d="M2739.26,1559.76l482,2.27l103.45,188.87l-481.99-2.27L2739.26,1559.76z M3218.93,1565.94l-473.05-2.23
			l99.15,181.03l266.21,1.25l0,0.01l206.83,0.97L3218.93,1565.94z"/>
		<path class="st0" d="M3270.97,1562.27l216.51,1.01l0.31,1.23l102.77,187.64l-216.15-1.02L3270.97,1562.27z M3484.78,1567.19
			l-207.19-0.97l99.15,181.02l207.19,0.98L3484.78,1567.19z"/>
		<path class="st0" d="M3536.81,1563.52l482,2.27l103.45,188.87l-481.99-2.27L3536.81,1563.52z M4016.48,1569.7l-210.52-0.99
			l-54.18-0.26l-208.35-0.98l99.16,181.03l264.7,1.25l208.34,0.98L4016.48,1569.7z"/>
	</g>
	<g>
		<path class="st0" d="M641.3,163.45l216.15,1.02l0.55,1.01l102.9,187.87l-216.15-1.02l-0.55-1.01L641.3,163.45z M855.12,168.38
			l-207.19-0.98l99.15,181.03l207.19,0.98L855.12,168.38z"/>
		<path class="st0" d="M907.16,164.71l216.15,1.02l0.55,1.01l102.9,187.87l-214.74-1.01l-1.23,0.31l-0.74-1.33L907.16,164.71z
			 M1120.98,169.63l-207.19-0.98l99.15,181.03l207.19,0.98L1120.98,169.63z"/>
		<path class="st0" d="M1173.01,165.96l747.84,3.52l0.55,1.01l102.9,187.87l-747.84-3.53l-0.55-1.01L1173.01,165.96z
			 M1918.53,173.39l-476.37-2.25l-54.18-0.25l-208.35-0.98l99.15,181.02l476.37,2.25l54.18,0.26l208.34,0.98L1918.53,173.39z"/>
		<path class="st0" d="M769.67,397.81l482,2.27l0.55,1.01l102.89,187.87l-482-2.27l-0.55-1.01L769.67,397.81z M1249.34,403.99
			l-210.52-0.99l-54.18-0.26l-208.35-0.98l99.15,181.03l210.52,0.99l54.18,0.26l208.35,0.98L1249.34,403.99z"/>
		<path class="st0" d="M1301.37,400.32l216.15,1.02l0.55,1.01l102.89,187.86l-216.14-1.02l-0.55-1.01L1301.37,400.32z
			 M1515.19,405.24l-207.19-0.98l99.15,181.02l207.19,0.98L1515.19,405.24z"/>
		<polygon class="st0" points="2149.35,590.75 1937.68,589.75 1883.5,589.49 1671.83,588.5 1570.53,403.54 1782.2,404.54 
			1836.38,404.8 2048.05,405.79 		"/>
		<path class="st0" d="M896.64,629.64l216.15,1.02l0.55,1.01l102.89,187.86l-216.15-1.02l-0.55-1.01L896.64,629.64z M1110.46,634.56
			l-207.19-0.98l99.15,181.02l207.19,0.98L1110.46,634.56z"/>
		<path class="st0" d="M1162.49,630.88l1013.69,4.78l103.45,188.88l-1013.7-4.78l-0.55-1.01L1162.49,630.88z M2173.86,639.57
			l-210.52-0.99l-54.18-0.25l-211.67-1l-54.18-0.26l-211.67-1l-54.18-0.26l-208.35-0.98l99.15,181.03l1004.74,4.74L2173.86,639.57z"
			/>
		<path class="st0" d="M1023.61,861.46l216.15,1.02l0.55,1.01l102.9,187.87l-216.14-1.02l-0.55-1.01L1023.61,861.46z
			 M1237.43,866.38l-207.19-0.98l99.16,181.03l207.19,0.98L1237.43,866.38z"/>
		<path class="st0" d="M1289.47,862.71l481.99,2.27l0.55,1.01l102.9,187.87l-482-2.27l-0.55-1.01L1289.47,862.71z M1769.13,868.89
			l-210.52-0.99l-54.18-0.25l-208.35-0.98l99.15,181.02l212.03,1l0,0.01l52.67,0.24l208.35,0.98L1769.13,868.89z"/>
		<path class="st0" d="M1821.16,865.22l482,2.27l103.45,188.87l-481.99-2.27l-0.55-1.01L1821.16,865.22z M2300.84,871.39
			l-210.52-0.99l-54.18-0.26l-208.35-0.98l99.15,181.03l210.51,0.99l54.18,0.25l208.35,0.98L2300.84,871.39z"/>
		<path class="st0" d="M1150.58,1093.28l216.15,1.02l0.55,1.01l102.9,187.87l-216.15-1.02l-0.55-1.01L1150.58,1093.28z
			 M1364.4,1098.2l-207.19-0.98l99.15,181.03l207.19,0.98L1364.4,1098.2z"/>
		<polygon class="st0" points="2530.27,1286.22 2318.6,1285.22 2217.3,1100.27 2428.97,1101.26 		"/>
		<path class="st0" d="M1277.56,1325.11l216.15,1.02l0.55,1.01l102.9,187.87l-216.15-1.02l-0.55-1.01L1277.56,1325.11z
			 M1491.38,1330.03l-207.19-0.98l99.15,181.03l207.19,0.98L1491.38,1330.03z"/>
		<path class="st0" d="M1543.41,1326.35l216.51,1.02l0.31,1.23L1863,1516.25l-216.15-1.02l-0.55-1.01L1543.41,1326.35z
			 M1757.23,1331.28l-207.19-0.98l99.15,181.03l207.19,0.98L1757.23,1331.28z"/>
		<path class="st0" d="M1416.44,1094.53l747.84,3.52l103.46,188.88l-747.85-3.52l-0.55-1.01L1416.44,1094.53z M2161.96,1101.96
			l-210.52-0.99l-54.17-0.25l-211.67-1l-54.18-0.26l-208.35-0.98l99.15,181.03l210.52,0.99l55.7,0.26l210.15,0.99l54.18,0.25
			l208.35,0.98L2161.96,1101.96z"/>
		<path class="st0" d="M1809.26,1327.61l216.15,1.02l0.55,1.01l102.9,187.87l-216.15-1.02l-0.55-1.01L1809.26,1327.61z
			 M2023.08,1332.53l-207.19-0.98l99.15,181.03l207.19,0.98L2023.08,1332.53z"/>
		<path class="st0" d="M2075.11,1328.87l482,2.27l103.45,188.88l-482.35-2.27l-0.31-1.23L2075.11,1328.87z M2554.78,1335.04
			l-210.52-0.99l-54.18-0.25l-208.35-0.98l99.16,181.03l210.51,0.99l54.18,0.25l208.35,0.98L2554.78,1335.04z"/>
		<path class="st0" d="M1404.53,1556.93l482,2.27l0.55,1.01l102.89,187.86l-481.99-2.27l-0.55-1.01L1404.53,1556.93z
			 M1884.2,1563.11l-473.05-2.23l99.16,181.03l210.52,0.99l262.52,1.23L1884.2,1563.11z"/>
		<path class="st0" d="M1936.24,1559.44l216.51,1.01l0.31,1.23l102.77,187.64l-216.15-1.02l-0.55-1.01L1936.24,1559.44z
			 M2150.05,1564.35l-207.19-0.97l99.15,181.02l207.19,0.98L2150.05,1564.35z"/>
		<path class="st0" d="M2202.08,1560.69l482,2.27l0.55,1.01l102.89,187.86l-481.99-2.27L2202.08,1560.69z M2681.75,1566.86
			l-210.52-0.99l-54.18-0.26l-208.35-0.98l99.15,181.03l264.7,1.25l208.34,0.98L2681.75,1566.86z"/>
	</g>
</g>
<g>
	<g>
		<path class="st0" d="M-676.53,169.17l216.15,1.02l103.46,188.88l-216.14-1.02L-676.53,169.17z M-462.71,174.09l-207.19-0.98
			l99.15,181.03l207.19,0.98L-462.71,174.09z"/>
		<polygon class="st0" points="-94.39,358.35 -306.06,357.35 -306.06,357.35 -407.36,172.4 -195.69,173.39 		"/>
		<path class="st0" d="M-144.82,171.68l747.84,3.52l0.55,1.01l102.9,187.87l-747.84-3.53L-144.82,171.68z M600.7,179.1l-476.37-2.25
			l-54.18-0.25l-208.35-0.98l99.15,181.02l476.37,2.25l54.18,0.26l208.34,0.98L600.7,179.1z"/>
		<path class="st0" d="M-548.16,403.52l482,2.27l0.55,1.01L37.28,594.68l-482-2.27l-0.55-1.01L-548.16,403.52z M-68.49,409.7
			l-473.05-2.23l99.15,181.03l210.52,0.99l54.18,0.26l208.35,0.98L-68.49,409.7z"/>
		<path class="st0" d="M-16.46,406.03l216.15,1.02l0.55,1.01l102.89,187.86l-216.14-1.02L-16.46,406.03z M197.36,410.96
			l-207.19-0.98L89.32,591l207.19,0.98L197.36,410.96z"/>
		<path class="st0" d="M249.39,407.28l482,2.27l103.45,188.88l-482-2.27l-0.55-1.01L249.39,407.28z M729.06,413.46l-210.52-0.99
			l-54.18-0.26l-208.35-0.98l99.15,181.03l210.52,0.99l54.18,0.26l208.35,0.98L729.06,413.46z"/>
		<path class="st0" d="M-421.19,635.35l216.14,1.02l103.45,188.87l-216.15-1.02L-421.19,635.35z M-207.37,640.27l-207.19-0.98
			l99.15,181.02l207.19,0.98L-207.37,640.27z"/>
		<polygon class="st0" points="958.49,828.28 746.82,827.29 692.64,827.03 480.97,826.03 426.8,825.78 215.13,824.78 160.94,824.52 
			-50.73,823.53 -152.03,638.57 59.64,639.57 113.82,639.83 325.49,640.83 379.67,641.08 591.34,642.08 645.53,642.33 
			857.19,643.33 		"/>
		<path class="st0" d="M-28.37,868.43l481.99,2.27l103.46,188.88l-482-2.27l-0.55-1.01L-28.37,868.43z M451.3,874.6l-210.52-0.99
			l-54.18-0.25l-208.35-0.98l99.15,181.02l212.03,1l0,0.01l52.67,0.24l208.35,0.98L451.3,874.6z"/>
		<path class="st0" d="M503.33,870.93l482,2.27l0.55,1.01l102.89,187.86l-481.99-2.27l-0.55-1.01L503.33,870.93z M983,877.11
			l-210.52-0.99l-54.18-0.26l-208.35-0.98l99.16,181.03l210.51,0.99l54.18,0.25l208.35,0.98L983,877.11z"/>
		<path class="st0" d="M-294.22,867.17l216.15,1.02l230.43,420.7l-216.15-1.02l-0.55-1.01l-126.97-231.82L-294.22,867.17z
			 M-80.4,872.1l-207.19-0.98l99.71,182.04l126.42,230.81l207.19,0.98L46.02,1102.9L-80.4,872.1z"/>
		<path class="st0" d="M896.16,1104.01l216.15,1.02l103.45,188.88l-216.15-1.02L896.16,1104.01z M1109.98,1108.93l-207.19-0.98
			l99.15,181.03l207.19,0.98L1109.98,1108.93z"/>
		<path class="st0" d="M-40.27,1330.82l216.15,1.02l103.46,188.88l-216.15-1.02L-40.27,1330.82z M173.55,1335.74l-207.19-0.98
			l99.15,181.03l207.19,0.98L173.55,1335.74z"/>
		<path class="st0" d="M225.58,1332.07l216.51,1.02l0.31,1.23l102.77,187.64l-216.15-1.02l-0.55-1.01L225.58,1332.07z
			 M439.4,1336.99l-207.19-0.98l99.15,181.03l207.19,0.98L439.4,1336.99z"/>
		<path class="st0" d="M98.61,1100.25l747.84,3.52l103.46,188.88l-747.85-3.52l-0.55-1.01L98.61,1100.25z M844.12,1107.68
			l-210.52-0.99l-54.18-0.25l-211.67-1l-54.18-0.26l-208.35-0.98l99.15,181.03l210.52,0.99l55.7,0.26l210.15,0.99l54.18,0.25
			l208.35,0.98L844.12,1107.68z"/>
		<path class="st0" d="M491.43,1333.32l216.15,1.02l103.45,188.88l-216.15-1.02L491.43,1333.32z M705.25,1338.25l-207.19-0.98
			l99.15,181.03l207.19,0.98L705.25,1338.25z"/>
		<path class="st0" d="M757.28,1334.58l482,2.27l103.45,188.88l-482.35-2.27l-0.31-1.23L757.28,1334.58z M1236.95,1340.75
			l-210.52-0.99l-54.18-0.25l-208.35-0.98l99.16,181.03l210.51,0.99l54.18,0.25l208.35,0.98L1236.95,1340.75z"/>
		<path class="st0" d="M86.7,1562.64l482,2.27l103.45,188.87l-481.99-2.27L86.7,1562.64z M566.37,1568.82l-473.05-2.23l99.15,181.03
			l266.21,1.25l0,0.01l206.83,0.97L566.37,1568.82z"/>
		<path class="st0" d="M618.41,1565.15l216.51,1.01l0.31,1.23L938,1755.04l-216.15-1.02L618.41,1565.15z M832.22,1570.07
			l-207.19-0.97l99.15,181.02l207.19,0.98L832.22,1570.07z"/>
		<path class="st0" d="M884.25,1566.4l482,2.27l103.45,188.87l-481.99-2.27L884.25,1566.4z M1363.92,1572.58l-210.52-0.99
			l-54.18-0.26l-208.35-0.98l99.15,181.03l264.7,1.25l208.34,0.98L1363.92,1572.58z"/>
	</g>
	<g>
		<path class="st0" d="M-2011.26,166.33l216.15,1.02l0.55,1.01l102.9,187.87l-216.15-1.02l-0.55-1.01L-2011.26,166.33z
			 M-1797.44,171.26l-207.19-0.98l99.15,181.03l207.19,0.98L-1797.44,171.26z"/>
		<path class="st0" d="M-1745.41,167.59l216.15,1.02l0.55,1.01l102.9,187.87l-214.74-1.01l-1.23,0.31l-0.74-1.33L-1745.41,167.59z
			 M-1531.59,172.51l-207.19-0.98l99.15,181.03l207.19,0.98L-1531.59,172.51z"/>
		<path class="st0" d="M-1479.55,168.84l747.84,3.52l0.55,1.01l102.9,187.87l-747.84-3.53l-0.55-1.01L-1479.55,168.84z
			 M-734.04,176.27l-476.37-2.25l-54.18-0.25l-208.35-0.98l99.15,181.02l476.37,2.25l54.18,0.26l208.34,0.98L-734.04,176.27z"/>
		<path class="st0" d="M-1882.9,400.69l482,2.27l0.55,1.01l102.89,187.87l-482-2.27l-0.55-1.01L-1882.9,400.69z M-1403.22,406.87
			l-210.52-0.99l-54.18-0.26l-208.35-0.98l99.15,181.03l210.52,0.99l54.18,0.26l208.35,0.98L-1403.22,406.87z"/>
		<path class="st0" d="M-1351.2,403.2l216.15,1.02l0.55,1.01l102.89,187.86l-216.14-1.02l-0.55-1.01L-1351.2,403.2z
			 M-1137.38,408.12l-207.19-0.98l99.15,181.02l207.19,0.98L-1137.38,408.12z"/>
		<polygon class="st0" points="-503.21,593.63 -714.88,592.63 -769.06,592.37 -980.73,591.38 -1082.03,406.42 -870.36,407.42 
			-816.18,407.68 -604.51,408.67 		"/>
		<path class="st0" d="M-1755.92,632.52l216.15,1.02l0.55,1.01l102.89,187.86l-216.15-1.02l-0.55-1.01L-1755.92,632.52z
			 M-1542.1,637.44l-207.19-0.98l99.15,181.02l207.19,0.98L-1542.1,637.44z"/>
		<path class="st0" d="M-1490.07,633.77l1013.7,4.78l103.45,188.88l-1013.7-4.78l-0.55-1.01L-1490.07,633.77z M-478.7,642.45
			l-210.52-0.99l-54.18-0.25l-211.67-1l-54.18-0.26l-211.67-1l-54.18-0.26l-208.35-0.98l99.15,181.03l1004.74,4.74L-478.7,642.45z"
			/>
		<path class="st0" d="M-1628.95,864.34l216.15,1.02l0.55,1.01l102.9,187.87l-216.14-1.02l-0.55-1.01L-1628.95,864.34z
			 M-1415.13,869.26l-207.19-0.98l99.16,181.03l207.19,0.98L-1415.13,869.26z"/>
		<path class="st0" d="M-1363.1,865.59l481.99,2.27l0.55,1.01l102.9,187.87l-482-2.27l-0.55-1.01L-1363.1,865.59z M-883.43,871.77
			l-210.52-0.99l-54.18-0.25l-208.35-0.98l99.15,181.02l212.03,1l0,0.01l52.67,0.24l208.35,0.98L-883.43,871.77z"/>
		<path class="st0" d="M-831.4,868.1l482,2.27l103.45,188.87l-481.99-2.27l-0.55-1.01L-831.4,868.1z M-351.73,874.27l-210.52-0.99
			l-54.18-0.26l-208.35-0.98l99.15,181.03l210.51,0.99l54.18,0.25l208.35,0.98L-351.73,874.27z"/>
		<path class="st0" d="M-1501.98,1096.16l216.15,1.02l0.55,1.01l102.9,187.87l-216.15-1.02l-0.55-1.01L-1501.98,1096.16z
			 M-1288.16,1101.08l-207.19-0.98l99.15,181.03l207.19,0.98L-1288.16,1101.08z"/>
		<polygon class="st0" points="-122.29,1289.1 -333.96,1288.1 -435.26,1103.15 -223.59,1104.14 		"/>
		<path class="st0" d="M-1375,1327.99l216.15,1.02l0.55,1.01l102.9,187.87l-216.15-1.02l-0.55-1.01L-1375,1327.99z
			 M-1161.18,1332.91l-207.19-0.98l99.15,181.03l207.19,0.98L-1161.18,1332.91z"/>
		<path class="st0" d="M-1109.15,1329.23l216.51,1.02l0.31,1.23l102.77,187.64l-216.15-1.02l-0.55-1.01L-1109.15,1329.23z
			 M-895.34,1334.16l-207.19-0.98l99.15,181.03l207.19,0.98L-895.34,1334.16z"/>
		<path class="st0" d="M-1236.12,1097.41l747.84,3.52l103.46,188.88l-747.85-3.52l-0.55-1.01L-1236.12,1097.41z M-490.61,1104.84
			l-210.52-0.99l-54.17-0.25l-211.67-1l-54.18-0.26l-208.35-0.98l99.15,181.03l210.52,0.99l55.7,0.26l210.15,0.99l54.18,0.25
			l208.35,0.98L-490.61,1104.84z"/>
		<path class="st0" d="M-843.3,1330.49l216.15,1.02l0.55,1.01l102.9,187.87l-216.15-1.02l-0.55-1.01L-843.3,1330.49z
			 M-629.48,1335.41l-207.19-0.98l99.15,181.03l207.19,0.98L-629.48,1335.41z"/>
		<path class="st0" d="M-577.45,1331.75l482,2.27L7.99,1522.89l-482.35-2.27l-0.31-1.23L-577.45,1331.75z M-97.78,1337.92
			l-210.52-0.99l-54.18-0.25l-208.35-0.98l99.16,181.03l210.51,0.99l54.18,0.25l208.35,0.98L-97.78,1337.92z"/>
		<path class="st0" d="M-1248.03,1559.81l482,2.27l0.55,1.01l102.89,187.86l-481.99-2.27l-0.55-1.01L-1248.03,1559.81z
			 M-768.36,1565.99l-473.05-2.23l99.16,181.03l210.52,0.99l262.52,1.23L-768.36,1565.99z"/>
		<path class="st0" d="M-716.33,1562.32l216.51,1.01l0.31,1.23l102.77,187.64l-216.15-1.02l-0.55-1.01L-716.33,1562.32z
			 M-502.51,1567.23l-207.19-0.97l99.15,181.02l207.19,0.98L-502.51,1567.23z"/>
		<path class="st0" d="M-450.48,1563.57l482,2.27l0.55,1.01l102.89,187.86l-481.99-2.27L-450.48,1563.57z M29.19,1569.74
			l-210.52-0.99l-54.18-0.26l-208.35-0.98l99.15,181.03l264.7,1.25l208.34,0.98L29.19,1569.74z"/>
	</g>
</g>
</svg>
