<?xml version="1.0" encoding="utf-8"?>
<!-- Generator: Adobe Illustrator 26.3.1, SVG Export Plug-In . SVG Version: 6.00 Build 0)  -->
<svg version="1.1" id="Layer_1" xmlns="http://www.w3.org/2000/svg" xmlns:xlink="http://www.w3.org/1999/xlink" x="0px" y="0px"
	 viewBox="0 0 2000 2000" style="enable-background:new 0 0 2000 2000;" xml:space="preserve">
<style type="text/css">
	.st0{fill:#FACF1D;}
	.st1{fill:#FEFEFE;}
	.st2{fill:#201F28;stroke:#FACF1D;stroke-width:2;stroke-miterlimit:10;}
	.st3{fill:#E0DFE1;}
	.st4{fill:#201F28;}
</style>
<g>
	<path class="st0" d="M125.71,1146.54c0-45.1,0-90.21,0-135.31c4.17,0.06,5.4-3.36,7.35-6.05c29.92-41.22,59.93-82.39,89.82-123.63
		c45.82-63.23,91.58-126.5,137.35-189.76c17.69-24.46,35.4-48.9,52.94-73.47c4.35-6.1,9.01-9.33,17.32-9.25
		c51.16,0.49,102.33,0.58,153.49-0.03c10.66-0.13,12.8,3.23,12.68,13.13c-0.51,44.41-0.22,88.84-0.22,133.26
		c0,81.44,0,162.87,0,244.31c0,13.45,0.01,13.46,13.87,13.47c18.51,0.01,37.03,0.23,55.54-0.11c6.8-0.13,9.53,1.75,9.47,9.05
		c-0.3,38.36-0.34,76.72,0.02,115.08c0.07,7.92-2.95,9.6-10.11,9.46c-19.52-0.39-39.05,0.19-58.57-0.29
		c-7.86-0.19-10.5,2.07-10.41,10.21c0.4,36.34-0.03,72.69,0.34,109.03c0.08,7.92-2.2,10.38-10.25,10.34
		c-56.55-0.32-113.1-0.31-169.66,0c-8.01,0.04-10.38-2.35-10.29-10.32c0.38-35.67-0.18-71.34,0.39-107
		c0.16-9.81-2.84-12.33-12.45-12.3C304.8,1146.69,215.25,1146.54,125.71,1146.54z M349.99,1013.2c16.14,0,32.29-0.18,48.43,0.09
		c6.1,0.11,8.25-2.07,8.24-8.2c-0.08-31.54-0.59-63.09,1.76-94.61c1.25-16.7-1.25-33.53,1.91-50.24c1.1-5.84,0.2-12.07,0.17-18.12
		c-0.01-1.76-0.5-3.51-2.39-3.96c-1.87-0.44-3.12,0.85-3.95,2.42c-0.95,1.78-1.96,3.54-2.74,5.39
		c-9.48,22.69-23.11,42.97-37.08,62.98c-22.25,31.87-44.95,63.44-67.4,95.17c-1.46,2.06-4.24,4.01-2.66,7.05
		c1.56,3.01,4.75,1.95,7.28,1.97C317.71,1013.24,333.85,1013.2,349.99,1013.2z"/>
	<path class="st0" d="M1875.27,1013.25c0,44.43,0,88.86,0,133.29c-22.89,0-45.79,0.33-68.68-0.17c-8.11-0.18-10.32,2.5-10.24,10.39
		c0.36,36.01-0.04,72.03,0.31,108.04c0.08,7.92-1.54,11.25-10.44,11.19c-55.89-0.38-111.78-0.36-167.67-0.01
		c-8.27,0.05-10.19-2.76-10.12-10.47c0.34-35.34,0.15-70.68,0.15-106.02c0-12.92-0.02-12.93-13.4-12.93
		c-85.85,0-171.71-0.12-257.56,0.18c-9,0.03-12.23-2.03-12.06-11.66c0.59-33.65,0.73-67.32-0.03-100.96
		c-0.3-13.01,3.75-23.23,11.41-33.28c16.26-21.33,31.94-43.12,47.63-64.88c26.1-36.19,51.9-72.6,78.05-108.75
		c50.52-69.84,101.26-139.51,151.68-209.43c4.43-6.14,9.18-8.63,16.74-8.59c50.84,0.27,101.68,0.14,152.52,0.15
		c12.95,0,12.96,0.01,12.96,13.37c0,125.54,0,251.08,0.01,376.62c0,13.86,0.03,13.87,14.11,13.89
		C1832.17,1013.22,1853.72,1013.23,1875.27,1013.25z M1550.57,1013.24c16.49,0,32.98-0.24,49.46,0.12c6.64,0.14,8.78-2.25,8.68-8.78
		c-0.31-20.18-0.2-40.37-0.08-60.55c0.19-32.86,1.65-65.68,3.87-98.46c0.2-2.98,2.03-7.95-2.18-8.74c-3.69-0.69-4.57,4.31-5.89,7.22
		c-7.82,17.14-16.97,33.55-27.69,49c-26.16,37.69-52.66,75.13-79.01,112.69c-1.27,1.81-4.31,3.19-2.97,5.81
		c1.51,2.95,4.83,1.63,7.34,1.65C1518.27,1013.3,1534.42,1013.24,1550.57,1013.24z"/>
	<path class="st0" d="M1048.69,604c13.1,1.45,26.05,3.75,38.71,7.73c19.89,6.25,38.79,15.52,55.81,27.57
		c12.17,8.62,23.35,18.59,33.44,29.56c2.33,2.54,4.46,4.98,8.12,5.31c-26.44,12-53.07,23.65-76.43,41.36
		c-9.67,7.33-18.93,15.12-25.31,25.63c-2.75,4.53-5.76,9.6-1.4,14.8c4.06,4.84,9.71,4.27,14.93,2.79
		c8.11-2.31,15.08-7.07,22.09-11.62c27.31-17.75,55.53-33.61,87.35-42.01c2.3,10.91,9.32,19.74,13.26,30
		c3.21,8.38,7.05,16.53,9.58,25.18c-12.81,0.4-25.36,2.32-37.49,6.57c-73.38,25.72-96.01,112.93-42.93,167.51
		c29.19,30.01,65.52,38.81,106.21,31.46c-0.97,42.19-4.98,83.99-14.27,125.28c-7.64,33.95-18.66,66.48-37.07,96.15
		c-11.27,18.16-25.18,34.68-41.6,48.39c-16.34,13.64-35,24.33-54.86,31.95c-12.27,4.71-24.36,10.09-37.6,11.09
		c-14.13,1.07-28.28,1.88-42.45,2.44c-12.2,0.48-24.41,0.74-36.6,1.09c-12.95,0.37-25.95,0.41-38.87-0.73
		c-0.98-0.08-1.95-0.17-2.93-0.27c-19.6-1.94-38.62-7.45-56.62-15.36c-19.84-8.72-38.18-20.63-54.44-34.95
		c-8.33-7.34-16.12-15.29-23.37-23.7c-4.56-5.29-7.98-11.56-11.93-17.38c19.2-29.43,43.09-54.82,68.74-78.57
		c20.69-19.16,42.49-36.99,67.55-50.39c2.24,1.25,3.46,3.14,3.5,5.71c0.16,10.55,3.63,20.49,6.52,30.38
		c4.07,13.95,10.66,27.26,22.88,35.71c24.94,17.26,62.01,9.67,75.56-27.17c9.92-26.96,14.26-55.01,14.27-83.73
		c18.49-1.12,36.97-1.24,55.3,1.75c28.5,4.65,55.46,13.22,77.6,32.82c5.73,5.08,11.53,6.45,16.75,0.85
		c5.21-5.59,2.29-10.95-2.82-15.58c-14.68-13.31-31.96-21.93-50.42-28.49c-30.57-10.85-62.29-12.74-94.34-12.09
		c-0.46-19.76,2.46-39.36,2.3-59.16c-0.13-16.43-2.34-32.7-2.25-49.1c0.16-29.16-3.25-57.99-8.43-86.59
		c-3.57-19.69-10.44-38.15-25.72-52.18c-11.32-10.4-23.82-12.29-32.15-5.32c1.86-24.49-9.23-44.58-21.88-64.1
		c-3.55-5.48-8.36-9.56-15.08-10.69c-1.61-0.27-3.48-0.31-4.03,1.86c-0.46,1.83,0.12,3.59,2.01,3.91c3.5,0.59,6.6,2.12,8.53,4.8
		c12.99,18.02,24.55,36.66,23.63,60.17c-6.52,2.02-13.04,4.04-19.56,6.06c-8.29-20.29-25.82-31.35-43.17-42.22
		c-32.61-20.43-68.53-33.28-105.15-44.36c12.65-11.46,25.7-22.38,40.33-31.33c20.44-12.51,43.33-20.08,66.44-25.93
		c7.84-1.98,15.55-3.86,23.63-4.67c12.36-1.23,25.09-0.84,37.54-0.86c13.05-0.01,26.11,0.23,39.15,1.02
		C1035.75,602.79,1042.24,603.29,1048.69,604z M1058.42,690.36c-2.02,0.53-2.72,1.99-3.54,3.49c-7.76,14.29-13.06,29.42-13.59,45.71
		c-0.69,21.24,11.96,41.53,29.53,48.62c2.6,1.05,6.25,3.6,8.05,0.29c2.28-4.19-2.37-4.38-4.91-5.51
		c-12.81-5.69-20.91-15.69-24.23-28.96c-4.52-18.09,0.35-35.11,7.89-51.54c1.24-2.71,2.77-5.35,3.61-8.18
		C1061.87,692.17,1061.04,690.26,1058.42,690.36z M1232.91,1059.33c-0.31-13.49-3.97-27.84-11.98-41.01
		c-1.29-2.11-2.64-4.33-5.42-3.06c-3.25,1.49-1.49,4.01-0.39,5.91c12.46,21.54,14.88,43.89,5.84,67.31
		c-0.75,1.94-2.01,4.88,1.42,5.85c3.03,0.85,3.84-1.59,4.74-3.88C1230.82,1081.03,1232.8,1071.29,1232.91,1059.33z"/>
	<path class="st0" d="M788.68,1171.42c-4.84-12.07-9.75-24.12-14.51-36.23c-15.28-38.88-22.62-79.47-26.35-120.9
		c-1.98-21.96-3.83-43.9-3.78-65.96c26.07,14.58,53.61,20.17,83.29,14.5c45.29-8.66,83.72-46.59,87.56-95.93
		c3.17-40.71-23.91-83.23-66.12-100.91c-26.53-11.11-53.4-10.91-80.65-3.43c4.85-18.01,12.21-35.01,21.09-51.33
		c1.98-3.64,3.66-6.98,3.2-11.14c9.15-0.63,18.02,1.49,26.9,3.03c40.93,7.08,77.77,24.13,112.45,46.45
		c8.69,5.59,17.52,11.24,28.39,11.77c-4.1,12.99-11.17,24.77-14.43,38.2c-9.05,37.31-9.26,75.49-11.66,113.4
		c-2.25,35.48,1.36,70.98,1.99,106.48c0.1,5.43,0.51,11.33,4.07,16.15c-21.84,12.99-43.07,26.82-62.86,42.88
		C843.73,1105.68,815.22,1137.59,788.68,1171.42z"/>
	<path class="st1" d="M788.68,1171.42c26.54-33.83,55.06-65.74,88.59-92.97c19.79-16.06,41.01-29.89,62.86-42.88
		c38.61-20,79.66-31.29,122.97-34.5c32.05-0.65,63.77,1.23,94.34,12.09c18.47,6.56,35.75,15.18,50.42,28.49
		c5.11,4.63,8.02,9.99,2.82,15.58c-5.21,5.6-11.01,4.23-16.75-0.85c-22.14-19.6-49.1-28.17-77.6-32.82
		c-18.33-2.99-36.81-2.87-55.3-1.75c-1.33,0.09-2.66,0.17-3.98,0.26c-1.09,0.2-2.18,0.4-3.27,0.61
		c-41.89,2.5-80.11,16.04-115.48,38.22c-25.05,13.4-46.86,31.23-67.54,50.39c-25.64,23.75-49.53,49.14-68.74,78.57
		c-4.61,4.01-7.1,9.57-10.42,14.51c-3.91,5.83-8.93,8.26-15.24,4.34c-6.09-3.79-5.69-9.26-2.24-14.74
		C778.89,1186.4,783.82,1178.93,788.68,1171.42z"/>
	<path class="st1" d="M960.15,761.34c-10.87-0.53-19.7-6.18-28.39-11.77c-34.68-22.31-71.52-39.37-112.45-46.45
		c-8.88-1.54-17.75-3.66-26.9-3.03c-13.78-3.32-28.03-1.41-41.92-3.79c-10.53-1.81-20.16-4.45-25.57-15
		c-5.76-11.2-3.38-18.07,9.06-22.34c14.62-5.02,29.79-4.05,44.74-2.14c14.55,1.86,28.96,4.84,43.43,7.34
		c36.62,11.08,72.54,23.92,105.15,44.36c17.35,10.87,34.88,21.93,43.17,42.22C969.76,756.93,966.06,760.21,960.15,761.34z"/>
	<path class="st2" d="M768.12,762.56c27.25-7.48,54.12-7.68,80.65,3.43c42.21,17.68,69.29,60.19,66.12,100.91
		c-3.84,49.34-42.26,87.27-87.56,95.93c-29.68,5.67-57.23,0.08-83.29-14.5c-22.87-15.59-39.75-35.79-46.44-63.07
		c-11.89-48.48,14.1-98.83,60.51-118.28C761.47,765.56,764.79,764.04,768.12,762.56z M877.4,796.82
		c-21.11-22.64-47.7-30.93-77.94-30.13c-54.06,1.44-103.85,49.69-93.88,109.22c3.52,21,13.1,38.87,29.41,52.88
		c41.97,39.09,110.35,35.46,147.67-7.84C914.69,883.8,912.27,826.79,877.4,796.82z"/>
	<path class="st1" d="M745.79,1199.49c-0.94-9.39,1.61-18.42,4.87-27.26c0.81-2.2,1.67-6.04,5.19-4.8c3.57,1.26,1.83,4.13,0.83,6.72
		c-6.74,17.31-6.63,34.65,0.33,51.88c0.91,2.25,2.27,4.78-0.51,6.14c-3.72,1.83-4.43-1.8-5.37-4.07
		C747.4,1219.03,745.06,1209.64,745.79,1199.49z"/>
	<path class="st1" d="M1206,705.12c-31.81,8.4-60.03,24.27-87.35,42.01c-7.01,4.55-13.98,9.31-22.09,11.62
		c-5.22,1.48-10.87,2.05-14.93-2.79c-4.36-5.2-1.36-10.26,1.4-14.8c6.38-10.51,15.63-18.3,25.31-25.63
		c23.36-17.7,49.99-29.35,76.43-41.36c25.67-8.68,51.24-17.64,78.3-21.26c14.36-1.92,28.71-3.71,43.13-1.19
		c8.24,1.44,17.18,2.79,19.45,12.92c1.81,8.11-5.32,18.9-14.85,22.95c-13.28,5.64-27.66,5.04-41.63,6.22
		C1247.73,695.63,1226.61,698.82,1206,705.12z"/>
	<path class="st2" d="M1254.62,965.84c-40.69,7.35-77.03-1.45-106.21-31.46c-53.08-54.58-30.45-141.78,42.93-167.51
		c12.13-4.25,24.68-6.17,37.49-6.57c37.35,1.07,68.76,14.68,91.08,45.31c36.15,49.62,20.95,116.14-32.9,147.22
		C1276.8,958.73,1265.88,962.64,1254.62,965.84z M1303.56,801.12c-27.21-31.11-77.15-40.33-118.41-21.87
		c-61.03,27.31-75.35,107.26-27.08,151.19c39.97,40.41,112.14,37.59,148.91-5.81C1338.83,887.02,1337.32,832.39,1303.56,801.12z"/>
	<path class="st1" d="M996.85,748.73c-2.05,11.14-6.13,21.22-15.1,28.7c-1.94,1.62-4.21,4.25-6.72,1.29
		c-2.23-2.63,0.64-4.13,2.27-5.63c8.3-7.66,12.84-16.98,12.73-28.4c0.92-23.5-10.64-42.15-23.63-60.17
		c-1.94-2.69-5.03-4.22-8.53-4.8c-1.88-0.32-2.47-2.08-2.01-3.91c0.55-2.18,2.42-2.13,4.03-1.86c6.72,1.13,11.53,5.2,15.08,10.69
		C987.62,704.14,998.71,724.24,996.85,748.73z"/>
	<path class="st1" d="M1058.42,690.36c2.62-0.1,3.44,1.81,2.81,3.92c-0.85,2.83-2.37,5.47-3.61,8.18
		c-7.54,16.44-12.41,33.46-7.89,51.54c3.32,13.27,11.42,23.27,24.23,28.96c2.54,1.13,7.19,1.31,4.91,5.51
		c-1.8,3.31-5.45,0.76-8.05-0.29c-17.56-7.08-30.21-27.38-29.53-48.62c0.53-16.29,5.83-31.42,13.59-45.71
		C1055.7,692.35,1056.41,690.89,1058.42,690.36z"/>
	<path class="st1" d="M1232.91,1059.33c-0.11,11.96-2.09,21.7-5.79,31.12c-0.9,2.29-1.72,4.73-4.74,3.88
		c-3.44-0.97-2.17-3.91-1.42-5.85c9.04-23.42,6.62-45.77-5.84-67.31c-1.1-1.9-2.86-4.42,0.39-5.91c2.79-1.28,4.14,0.95,5.42,3.06
		C1228.94,1031.49,1232.6,1045.84,1232.91,1059.33z"/>
	<path class="st3" d="M1057.05,1022.07c-1.09,0.2-2.18,0.41-3.27,0.61C1054.87,1022.47,1055.96,1022.27,1057.05,1022.07z"/>
	<path class="st1" d="M734.99,928.8c-16.31-14.01-25.89-31.89-29.41-52.88c-9.97-59.53,39.82-107.78,93.88-109.22
		c30.25-0.81,56.83,7.49,77.94,30.13c1.23,5.53,2.58,11.03,3.66,16.58c0.78,3.98,4.62,8.01,0.12,12.06
		c-11.52-6.57-23.79-8.85-36.58-5c-17.34,5.22-28.31,20.17-28.03,37.17c0.3,17.77,11.75,30.84,32.34,36.9
		c2.23,3.37,7.49-0.04,9.42,4.03c-0.34,0.76-0.47,1.48-0.89,1.95c-25.95,28.74-58.56,37.54-96.13,32.98
		C752.39,932.41,744.36,926.84,734.99,928.8z"/>
	<path class="st3" d="M734.99,928.8c9.37-1.96,17.4,3.61,26.33,4.7c37.56,4.56,70.18-4.24,96.13-32.98
		c0.42-0.47,0.55-1.19,0.89-1.95c-1.93-4.07-7.2-0.66-9.42-4.03c10.52,0.69,20.77,0.28,30.17-5.5c18.06-11.1,29.97-40.04,2.09-63.57
		c4.51-4.05,0.66-8.08-0.12-12.06c-1.08-5.55-2.43-11.06-3.66-16.58c34.87,29.97,37.28,86.97,5.26,124.13
		C845.34,964.26,776.96,967.89,734.99,928.8z"/>
	<path class="st1" d="M1158.07,930.44c-48.27-43.92-33.95-123.88,27.08-151.19c41.26-18.46,91.2-9.24,118.41,21.87
		c-0.69,6.17,1.52,11.88,2.94,17.69c0.82,3.36,2,6.51-1.59,8.98c-2.74-1.19-5.42-2.56-8.24-3.53c-16.34-5.62-31.17-2.87-43.69,9.08
		c-11.18,10.67-14.44,23.83-9.66,38.61c5.27,16.3,20.19,25.56,41.99,26.47c-6.08,12.82-17.32,19.95-29.32,26
		c-20.63,10.41-42.01,16.22-65.65,12.83C1179.35,935.67,1169.2,930.81,1158.07,930.44z"/>
	<path class="st3" d="M1304.92,827.79c3.59-2.47,2.41-5.62,1.59-8.98c-1.42-5.81-3.63-11.52-2.94-17.69
		c33.76,31.27,35.28,85.9,3.42,123.51c-36.77,43.4-108.94,46.22-148.91,5.81c11.14,0.37,21.29,5.23,32.28,6.81
		c23.64,3.39,45.02-2.42,65.65-12.83c11.99-6.05,23.23-13.18,29.32-26c26.4-5.56,39.38-21.39,36.55-44.32
		C1320.44,842.54,1313.18,834.87,1304.92,827.79z"/>
	<path class="st4" d="M881.18,825.47c27.88,23.54,15.97,52.47-2.09,63.57c-9.4,5.78-19.66,6.19-30.17,5.5
		c-20.59-6.06-32.05-19.13-32.34-36.9c-0.28-17,10.69-31.95,28.03-37.17C857.38,816.62,869.66,818.9,881.18,825.47z M847.08,834.07
		c-8.8-0.07-16.22,6.98-16.34,15.54c-0.12,8.51,7.06,15.69,15.94,15.93c9.52,0.25,16.81-6.76,16.69-16.05
		C863.25,840.61,856.42,834.15,847.08,834.07z"/>
	<path class="st4" d="M1304.92,827.79c8.27,7.09,15.52,14.75,16.95,26.32c2.83,22.93-10.15,38.75-36.55,44.32
		c-21.8-0.92-36.72-10.18-41.99-26.47c-4.78-14.77-1.52-27.94,9.66-38.61c12.52-11.95,27.35-14.7,43.69-9.08
		C1299.5,825.22,1302.17,826.6,1304.92,827.79z M1272.08,837.53c-9.1-0.2-16.54,6.39-16.88,14.94c-0.33,8.3,6.92,15.59,15.86,15.95
		c9.64,0.39,17.37-6.44,17.39-15.39C1288.48,844.65,1281.17,837.73,1272.08,837.53z"/>
	<path class="st1" d="M847.08,834.07c9.34,0.08,16.17,6.54,16.29,15.41c0.12,9.29-7.16,16.3-16.69,16.05
		c-8.88-0.23-16.06-7.41-15.94-15.93C830.86,841.05,838.29,833.99,847.08,834.07z"/>
	<path class="st1" d="M1272.08,837.53c9.09,0.2,16.4,7.11,16.38,15.5c-0.03,8.95-7.75,15.78-17.39,15.39
		c-8.94-0.37-16.19-7.65-15.86-15.95C1255.54,843.92,1262.98,837.34,1272.08,837.53z"/>
</g>
</svg>
